<svg width="16" height="20" viewBox="0 0 16 20" fill="none" xmlns="http://www.w3.org/2000/svg">
<path d="M8 9.47368C10.8676 9.47368 13.1923 7.35293 13.1923 4.73684C13.1923 2.12076 10.8676 0 8 0C5.13237 0 2.80769 2.12076 2.80769 4.73684C2.80769 7.35293 5.13237 9.47368 8 9.47368Z" fill="#6B7280"/>
<path d="M9.73077 10.5263H6.26923C4.7397 10.528 3.27334 11.083 2.19179 12.0697C1.11025 13.0564 0.501832 14.3941 0.5 15.7895V18.9474C0.5 19.2265 0.621566 19.4943 0.837954 19.6917C1.05434 19.8891 1.34783 20 1.65385 20H14.3462C14.6522 20 14.9457 19.8891 15.162 19.6917C15.3784 19.4943 15.5 19.2265 15.5 18.9474V15.7895C15.4982 14.3941 14.8898 13.0564 13.8082 12.0697C12.7267 11.083 11.2603 10.528 9.73077 10.5263Z" fill="#6B7280"/>
</svg>
