<svg width="11" height="11" viewBox="0 0 11 11" fill="none" xmlns="http://www.w3.org/2000/svg">
<g clip-path="url(#clip0_13_12795)">
<path d="M5.69488 1.07086L5.69524 1.0712L8.69062 3.92455C8.73191 3.96637 8.75042 4.01682 8.74999 4.06422C8.74955 4.11249 8.72939 4.16382 8.68551 4.20563C8.64083 4.24818 8.57554 4.27626 8.50253 4.27686C8.43072 4.27745 8.36568 4.25135 8.32007 4.2105L6.60468 2.57645L5.75981 1.77165V2.93848V9.78571C5.75981 9.83449 5.7397 9.88649 5.69532 9.92876C5.65012 9.97181 5.58385 10 5.50996 10C5.43607 10 5.3698 9.97181 5.32461 9.92876C5.28023 9.88649 5.26011 9.83449 5.26011 9.78571V2.93848V1.77235L4.41541 2.5763L2.6945 4.21418L2.69445 4.21412L2.6881 4.22037C2.66619 4.24199 2.63865 4.2605 2.60645 4.27368C2.57422 4.28687 2.53872 4.29411 2.50223 4.29442C2.46573 4.29472 2.43005 4.28806 2.39747 4.27536C2.36493 4.26268 2.33692 4.24455 2.31449 4.22318L2.31449 4.22318C2.29211 4.20186 2.27581 4.17787 2.26526 4.15329C2.25473 4.12878 2.24978 4.10343 2.25001 4.07849C2.25024 4.05354 2.25565 4.0282 2.26668 4.00375C2.27774 3.97922 2.29456 3.95537 2.31746 3.93431L2.31751 3.93436L2.32379 3.92838L5.32319 1.0712L5.32355 1.07086C5.34531 1.05009 5.37255 1.03242 5.40426 1.02007L5.40426 1.02007L5.40596 1.01941C5.47167 0.993532 5.54676 0.993532 5.61247 1.01941L5.61247 1.01941L5.61416 1.02007C5.64588 1.03242 5.67312 1.05009 5.69488 1.07086Z" fill="#0E9F6E" stroke="#0E9F6E"/>
</g>
<defs>
<clipPath id="clip0_13_12795">
<rect width="10" height="10" fill="white" transform="translate(0.5 0.5)"/>
</clipPath>
</defs>
</svg>
