<svg width="20" height="20" viewBox="0 0 20 20" fill="none" xmlns="http://www.w3.org/2000/svg">
<g clip-path="url(#clip0_13_12682)">
<path d="M1.41872 5.96623L9.5041 9.99597C9.65831 10.0722 9.8295 10.112 10.0032 10.112C10.177 10.112 10.3482 10.0722 10.5024 9.99597L18.5878 5.96623C18.7621 5.87932 18.9082 5.7486 19.0101 5.58825C19.1121 5.4279 19.1659 5.24403 19.1659 5.05659C19.1659 4.86915 19.1121 4.68528 19.0101 4.52493C18.9082 4.36458 18.7621 4.23386 18.5878 4.14695L10.5024 0.117211C10.348 0.0402186 10.1764 0 10.0022 0C9.82792 0 9.65629 0.0402186 9.50194 0.117211L1.41656 4.14695C1.24218 4.23386 1.09611 4.36458 0.994188 4.52493C0.892267 4.68528 0.838386 4.86915 0.838386 5.05659C0.838386 5.24403 0.892267 5.4279 0.994188 5.58825C1.09611 5.7486 1.24218 5.87932 1.41656 5.96623H1.41872Z" fill="#6B7280"/>
<path d="M18.0886 8.16642C17.8027 8.16642 17.5285 8.27459 17.3263 8.46713C17.1241 8.65967 17.0106 8.92081 17.0106 9.1931V9.37893L10.0032 12.8697L2.9959 9.37893V9.1931C2.9959 8.92081 2.88232 8.65967 2.68015 8.46713C2.47798 8.27459 2.20377 8.16642 1.91785 8.16642C1.63193 8.16642 1.35773 8.27459 1.15555 8.46713C0.953381 8.65967 0.839801 8.92081 0.839801 9.1931V10.0001C0.839768 10.1875 0.893599 10.3713 0.995457 10.5317C1.09732 10.692 1.24332 10.8228 1.41764 10.9097L9.50302 14.9395C9.65736 15.0164 9.829 15.0567 10.0032 15.0567C10.1775 15.0567 10.3491 15.0164 10.5035 14.9395L18.5888 10.9097C18.7632 10.8228 18.9092 10.692 19.011 10.5317C19.1129 10.3713 19.1667 10.1875 19.1667 10.0001V9.1931C19.1667 8.92081 19.0531 8.65967 18.8509 8.46713C18.6487 8.27459 18.3745 8.16642 18.0886 8.16642Z" fill="#6B7280"/>
<path d="M18.0822 13.1099C17.7962 13.1099 17.522 13.2181 17.3199 13.4106C17.1177 13.6032 17.0041 13.8643 17.0041 14.1366V14.3224L9.99677 17.8131L2.98944 14.3224V14.1366C2.98944 13.8643 2.87586 13.6032 2.67368 13.4106C2.47151 13.2181 2.1973 13.1099 1.91139 13.1099C1.62547 13.1099 1.35126 13.2181 1.14909 13.4106C0.946916 13.6032 0.833336 13.8643 0.833336 14.1366V14.9446C0.833303 15.132 0.887134 15.3158 0.988993 15.4762C1.09085 15.6365 1.23685 15.7673 1.41117 15.8542L9.49655 19.884C9.65114 19.9602 9.82269 20 9.99677 20C10.1709 20 10.3424 19.9602 10.497 19.884L18.5824 15.8542C18.7567 15.7673 18.9027 15.6365 19.0045 15.4762C19.1064 15.3158 19.1602 15.132 19.1602 14.9446V14.1366C19.1602 13.8643 19.0466 13.6032 18.8445 13.4106C18.6423 13.2181 18.3681 13.1099 18.0822 13.1099Z" fill="#6B7280"/>
</g>
<defs>
<clipPath id="clip0_13_12682">
<rect width="20" height="20" fill="white"/>
</clipPath>
</defs>
</svg>
