<svg width="20" height="20" viewBox="0 0 20 20" fill="none" xmlns="http://www.w3.org/2000/svg">
<path d="M18 0.833328H2C1.46957 0.833328 0.960859 1.04794 0.585786 1.42996C0.210714 1.81198 0 2.33011 0 2.87037V17.1296C0 17.6699 0.210714 18.188 0.585786 18.57C0.960859 18.952 1.46957 19.1667 2 19.1667H18C18.5304 19.1667 19.0391 18.952 19.4142 18.57C19.7893 18.188 20 17.6699 20 17.1296V2.87037C20 2.33011 19.7893 1.81198 19.4142 1.42996C19.0391 1.04794 18.5304 0.833328 18 0.833328ZM5 15.0926C4.80225 15.0925 4.60895 15.0328 4.44454 14.9209C4.28013 14.8089 4.15199 14.6499 4.07632 14.4638C4.00065 14.2777 3.98085 14.073 4.01942 13.8754C4.05798 13.6779 4.15319 13.4964 4.293 13.354L7.586 10L4.293 6.64601C4.11084 6.45392 4.01005 6.19664 4.01233 5.92959C4.0146 5.66253 4.11977 5.40708 4.30518 5.21824C4.49059 5.02939 4.7414 4.92228 5.0036 4.91996C5.2658 4.91764 5.5184 5.0203 5.707 5.20583L9.707 9.2799C9.89447 9.4709 9.99979 9.72992 9.99979 10C9.99979 10.2701 9.89447 10.5291 9.707 10.7201L5.707 14.7942C5.51951 14.9852 5.26519 15.0925 5 15.0926ZM15 15.0926H10C9.73478 15.0926 9.48043 14.9853 9.29289 14.7943C9.10536 14.6033 9 14.3442 9 14.0741C9 13.8039 9.10536 13.5449 9.29289 13.3539C9.48043 13.1629 9.73478 13.0556 10 13.0556H15C15.2652 13.0556 15.5196 13.1629 15.7071 13.3539C15.8946 13.5449 16 13.8039 16 14.0741C16 14.3442 15.8946 14.6033 15.7071 14.7943C15.5196 14.9853 15.2652 15.0926 15 15.0926Z" fill="#6B7280"/>
</svg>
