<svg width="20" height="20" viewBox="0 0 20 20" fill="none" xmlns="http://www.w3.org/2000/svg">
<g clip-path="url(#clip0_13_12723)">
<path d="M18.8889 7.77778H18.0478L17.2622 5.88111L17.8567 5.28556C18.065 5.07719 18.182 4.79463 18.182 4.5C18.182 4.20537 18.065 3.92281 17.8567 3.71444L16.2856 2.14333C16.0772 1.93503 15.7946 1.81802 15.5 1.81802C15.2054 1.81802 14.9228 1.93503 14.7144 2.14333L14.1189 2.73778L12.2222 1.95222V1.11111C12.2222 0.816426 12.1052 0.533811 11.8968 0.325437C11.6884 0.117063 11.4058 0 11.1111 0H8.88889C8.5942 0 8.31159 0.117063 8.10322 0.325437C7.89484 0.533811 7.77778 0.816426 7.77778 1.11111V1.95222L5.88111 2.73778L5.28556 2.14333C5.07719 1.93503 4.79463 1.81802 4.5 1.81802C4.20537 1.81802 3.92281 1.93503 3.71444 2.14333L2.14333 3.71444C1.93503 3.92281 1.81802 4.20537 1.81802 4.5C1.81802 4.79463 1.93503 5.07719 2.14333 5.28556L2.73889 5.88111L1.95222 7.77778H1.11111C0.816426 7.77778 0.533811 7.89484 0.325437 8.10322C0.117063 8.31159 0 8.5942 0 8.88889V11.1111C0 11.4058 0.117063 11.6884 0.325437 11.8968C0.533811 12.1052 0.816426 12.2222 1.11111 12.2222H1.95222C2.33111 13.1367 2.36 13.2044 2.73778 14.1189L2.14333 14.7144C1.93503 14.9228 1.81802 15.2054 1.81802 15.5C1.81802 15.7946 1.93503 16.0772 2.14333 16.2856L3.71444 17.8567C3.92281 18.065 4.20537 18.182 4.5 18.182C4.79463 18.182 5.07719 18.065 5.28556 17.8567L5.88111 17.2622L7.77778 18.0478V18.8889C7.77778 19.1836 7.89484 19.4662 8.10322 19.6746C8.31159 19.8829 8.5942 20 8.88889 20H11.1111C11.4058 20 11.6884 19.8829 11.8968 19.6746C12.1052 19.4662 12.2222 19.1836 12.2222 18.8889V18.0478L14.1189 17.2611L14.7144 17.8567C14.9228 18.065 15.2054 18.182 15.5 18.182C15.7946 18.182 16.0772 18.065 16.2856 17.8567L17.8567 16.2856C18.065 16.0772 18.182 15.7946 18.182 15.5C18.182 15.2054 18.065 14.9228 17.8567 14.7144L17.2622 14.1189L18.0478 12.2222H18.8889C19.1836 12.2222 19.4662 12.1052 19.6746 11.8968C19.8829 11.6884 20 11.4058 20 11.1111V8.88889C20 8.5942 19.8829 8.31159 19.6746 8.10322C19.4662 7.89484 19.1836 7.77778 18.8889 7.77778ZM10 14.4444C9.12097 14.4444 8.26169 14.1838 7.5308 13.6954C6.79991 13.2071 6.23026 12.5129 5.89387 11.7008C5.55748 10.8887 5.46946 9.99507 5.64095 9.13293C5.81244 8.27079 6.23574 7.47887 6.8573 6.8573C7.47887 6.23574 8.27079 5.81244 9.13293 5.64095C9.99507 5.46946 10.8887 5.55748 11.7008 5.89387C12.5129 6.23026 13.2071 6.79991 13.6954 7.5308C14.1838 8.26169 14.4444 9.12097 14.4444 10C14.4444 11.1787 13.9762 12.3092 13.1427 13.1427C12.3092 13.9762 11.1787 14.4444 10 14.4444Z" fill="#6B7280"/>
</g>
<defs>
<clipPath id="clip0_13_12723">
<rect width="20" height="20" fill="white"/>
</clipPath>
</defs>
</svg>
