<svg width="20" height="20" viewBox="0 0 20 20" fill="none" xmlns="http://www.w3.org/2000/svg">
<g clip-path="url(#clip0_13_12717)">
<path d="M16.7805 13.3342C16.0317 13.3375 15.3078 13.6128 14.7354 14.112C14.6756 14.0494 14.6096 13.9936 14.5383 13.9455L6.69545 9.69835C6.61649 9.66382 6.53395 9.6388 6.44947 9.62376C6.45849 9.52787 6.4778 9.43598 6.4778 9.33875C6.4778 9.32677 6.4778 9.31611 6.4778 9.30546C6.56258 9.29629 6.64627 9.27845 6.72764 9.25218L14.3336 5.87601C14.409 5.83376 14.4798 5.78331 14.5448 5.72551C15.0795 6.25912 15.7762 6.58502 16.5168 6.64794C17.2574 6.71086 17.9962 6.50694 18.6079 6.07074C19.2197 5.63455 19.6667 4.99295 19.8732 4.25477C20.0797 3.51658 20.0329 2.72726 19.7408 2.02067C19.4487 1.31409 18.9292 0.733754 18.2705 0.378091C17.6119 0.0224272 16.8545 -0.0866637 16.1269 0.0693211C15.3993 0.225306 14.7463 0.636763 14.2786 1.2339C13.8109 1.83105 13.5573 2.57711 13.5609 3.34555C13.5602 3.35664 13.5602 3.36775 13.5609 3.37884C13.4761 3.38844 13.3924 3.40673 13.311 3.43345L5.7051 6.80829C5.62992 6.85087 5.55915 6.90129 5.4939 6.95878C5.04885 6.50471 4.48586 6.19408 3.87333 6.06466C3.2608 5.93525 2.6251 5.9926 2.0435 6.22976C1.46189 6.46692 0.959411 6.87367 0.597122 7.40058C0.234834 7.9275 0.0283319 8.55189 0.0027118 9.19789C-0.0229083 9.84389 0.133456 10.4837 0.452804 11.0395C0.772151 11.5953 1.24073 12.0433 1.80161 12.3289C2.36248 12.6145 2.9915 12.7255 3.61222 12.6484C4.23294 12.5713 4.81864 12.3094 5.29815 11.8945C5.35791 11.9571 5.42396 12.0129 5.49519 12.061L13.3381 16.3082C13.4155 16.3494 13.4971 16.3816 13.5815 16.4041C13.5815 16.492 13.5557 16.5772 13.5557 16.6704C13.5557 17.329 13.7446 17.9727 14.0983 18.5202C14.4521 19.0678 14.9549 19.4945 15.5432 19.7466C16.1315 19.9986 16.7789 20.0645 17.4034 19.936C18.028 19.8076 18.6016 19.4904 19.0519 19.0248C19.5022 18.5591 19.8088 17.9659 19.933 17.32C20.0572 16.6741 19.9935 16.0047 19.7498 15.3963C19.5061 14.7879 19.0935 14.2679 18.564 13.902C18.0345 13.5362 17.4121 13.3409 16.7753 13.3409L16.7805 13.3342Z" fill="#6B7280"/>
</g>
<defs>
<clipPath id="clip0_13_12717">
<rect width="20" height="20" fill="white"/>
</clipPath>
</defs>
</svg>
