<svg width="21" height="21" viewBox="0 0 21 21" fill="none" xmlns="http://www.w3.org/2000/svg">
<path d="M8.5001 16.5C6.91783 16.5 5.37109 16.0308 4.05548 15.1518C2.73987 14.2727 1.71448 13.0233 1.10897 11.5615C0.503466 10.0997 0.345038 8.49112 0.653723 6.93928C0.962409 5.38743 1.72434 3.96197 2.84318 2.84315C3.96201 1.72433 5.38749 0.962403 6.93936 0.653721C8.49122 0.34504 10.0998 0.503466 11.5616 1.10897C13.0234 1.71447 14.2729 2.73985 15.1519 4.05544C16.031 5.37103 16.5002 6.91775 16.5002 8.5C16.4978 10.621 15.6542 12.6544 14.1544 14.1542C12.6546 15.654 10.6211 16.4976 8.5001 16.5ZM8.5001 2.5C7.3134 2.5 6.15334 2.8519 5.16664 3.51118C4.17993 4.17047 3.41089 5.10754 2.95675 6.2039C2.50262 7.30026 2.3838 8.50665 2.61532 9.67054C2.84683 10.8344 3.41828 11.9035 4.25741 12.7426C5.09653 13.5818 6.16564 14.1532 7.32954 14.3847C8.49344 14.6162 9.69985 14.4974 10.7962 14.0433C11.8926 13.5891 12.8297 12.8201 13.489 11.8334C14.1483 10.8467 14.5002 9.68669 14.5002 8.5C14.4986 6.90919 13.8659 5.38399 12.741 4.25912C11.6161 3.13424 10.0909 2.50159 8.5001 2.5Z" fill="#6B7280"/>
<path d="M19.5002 20.5C19.235 20.4999 18.9807 20.3946 18.7932 20.207L14.7931 16.207C14.611 16.0184 14.5102 15.7658 14.5125 15.5036C14.5147 15.2414 14.6199 14.9906 14.8053 14.8052C14.9907 14.6198 15.2416 14.5146 15.5038 14.5123C15.766 14.51 16.0186 14.6108 16.2072 14.793L20.2072 18.793C20.347 18.9329 20.4422 19.111 20.4808 19.305C20.5194 19.4989 20.4996 19.7 20.4239 19.8827C20.3482 20.0654 20.2201 20.2215 20.0557 20.3314C19.8913 20.4413 19.698 20.5 19.5002 20.5Z" fill="#6B7280"/>
</svg>
