<svg width="20" height="20" viewBox="0 0 20 20" fill="none" xmlns="http://www.w3.org/2000/svg">
<path d="M0.833336 13.731V16C0.833336 18.626 5.44417 20 10 20C14.5558 20 19.1667 18.626 19.1667 16V13.731C16.9575 15.352 13.3051 16 10 16C6.69491 16 3.0425 15.352 0.833336 13.731Z" fill="#6B7280"/>
<path d="M0.833336 7.731V10C0.833336 12.626 5.44417 14 10 14C14.5558 14 19.1667 12.626 19.1667 10V7.731C16.9575 9.352 13.3051 10 10 10C6.69491 10 3.0425 9.352 0.833336 7.731Z" fill="#6B7280"/>
<path d="M10 8C15.0626 8 19.1667 6.20914 19.1667 4C19.1667 1.79086 15.0626 0 10 0C4.93739 0 0.833336 1.79086 0.833336 4C0.833336 6.20914 4.93739 8 10 8Z" fill="#6B7280"/>
</svg>
