<svg width="20" height="20" viewBox="0 0 20 20" fill="none" xmlns="http://www.w3.org/2000/svg">
<path d="M13.7506 12.3811H4.2666L5.88311 10.8418C6.37193 10.3763 6.37193 9.62397 5.88311 9.1585C5.39428 8.69303 4.60416 8.69303 4.11533 9.1585L0.364745 12.7299C0.249727 12.8394 0.158462 12.9715 0.0947023 13.1168C-0.0315674 13.4084 -0.0315674 13.7358 0.0947023 14.0263C0.158462 14.1715 0.249727 14.3036 0.364745 14.4132L4.11533 17.9845C4.35912 18.2167 4.67917 18.3333 4.99922 18.3333C5.31927 18.3333 5.63932 18.2167 5.88311 17.9845C6.37193 17.5191 6.37193 16.7667 5.88311 16.3012L4.2666 14.762H13.7506C14.4407 14.762 15.0008 14.2286 15.0008 13.5715C15.0008 12.9144 14.4407 12.3811 13.7506 12.3811Z" fill="#6B7280"/>
<path d="M19.9053 5.97403C19.8415 5.8288 19.7503 5.69666 19.6353 5.58713L15.8847 2.01577C15.3958 1.5503 14.6057 1.5503 14.1169 2.01577C13.6281 2.48124 13.6281 3.2336 14.1169 3.69907L15.7334 5.23833H6.24941C5.55931 5.23833 4.99922 5.77165 4.99922 6.42878C4.99922 7.08592 5.55931 7.61924 6.24941 7.61924H15.7334L14.1169 9.1585C13.6281 9.62397 13.6281 10.3763 14.1169 10.8418C14.3607 11.0739 14.6807 11.1906 15.0008 11.1906C15.3208 11.1906 15.6409 11.0739 15.8847 10.8418L19.6353 7.27044C19.7503 7.16091 19.8415 7.02877 19.9053 6.88354C20.0316 6.59307 20.0316 6.2645 19.9053 5.97403Z" fill="#6B7280"/>
</svg>
